<mxfile host="app.diagrams.net" modified="2023-11-13T14:25:04.208Z" agent="Mozilla/5.0 (Windows NT 10.0; Win64; x64; rv:109.0) Gecko/20100101 Firefox/116.0" etag="qxv-f2k_6yd14fcRoaMX" version="22.1.0" type="github">
  <diagram name="Trang-1" id="8WOk82VxNDKTeJKdt3mN">
    <mxGraphModel dx="880" dy="508" grid="1" gridSize="10" guides="1" tooltips="1" connect="1" arrows="1" fold="1" page="1" pageScale="1" pageWidth="827" pageHeight="1169" math="0" shadow="0">
      <root>
        <mxCell id="0" />
        <mxCell id="1" parent="0" />
        <mxCell id="_pkrtM7WGQT2VM3EGbci-3" style="edgeStyle=orthogonalEdgeStyle;rounded=0;orthogonalLoop=1;jettySize=auto;html=1;entryX=0.5;entryY=0;entryDx=0;entryDy=0;" edge="1" parent="1" source="_pkrtM7WGQT2VM3EGbci-1" target="_pkrtM7WGQT2VM3EGbci-2">
          <mxGeometry relative="1" as="geometry" />
        </mxCell>
        <mxCell id="_pkrtM7WGQT2VM3EGbci-1" value="start" style="ellipse;whiteSpace=wrap;html=1;" vertex="1" parent="1">
          <mxGeometry x="320" y="20" width="120" height="80" as="geometry" />
        </mxCell>
        <mxCell id="_pkrtM7WGQT2VM3EGbci-5" style="edgeStyle=orthogonalEdgeStyle;rounded=0;orthogonalLoop=1;jettySize=auto;html=1;entryX=0.5;entryY=0;entryDx=0;entryDy=0;" edge="1" parent="1" source="_pkrtM7WGQT2VM3EGbci-2" target="_pkrtM7WGQT2VM3EGbci-4">
          <mxGeometry relative="1" as="geometry" />
        </mxCell>
        <mxCell id="_pkrtM7WGQT2VM3EGbci-2" value="number" style="shape=parallelogram;perimeter=parallelogramPerimeter;whiteSpace=wrap;html=1;fixedSize=1;" vertex="1" parent="1">
          <mxGeometry x="330" y="160" width="120" height="60" as="geometry" />
        </mxCell>
        <mxCell id="_pkrtM7WGQT2VM3EGbci-7" style="edgeStyle=orthogonalEdgeStyle;rounded=0;orthogonalLoop=1;jettySize=auto;html=1;" edge="1" parent="1" source="_pkrtM7WGQT2VM3EGbci-4" target="_pkrtM7WGQT2VM3EGbci-6">
          <mxGeometry relative="1" as="geometry" />
        </mxCell>
        <mxCell id="_pkrtM7WGQT2VM3EGbci-4" value="i=0" style="shape=parallelogram;perimeter=parallelogramPerimeter;whiteSpace=wrap;html=1;fixedSize=1;" vertex="1" parent="1">
          <mxGeometry x="310" y="280" width="120" height="60" as="geometry" />
        </mxCell>
        <mxCell id="_pkrtM7WGQT2VM3EGbci-10" style="edgeStyle=orthogonalEdgeStyle;rounded=0;orthogonalLoop=1;jettySize=auto;html=1;" edge="1" parent="1" source="_pkrtM7WGQT2VM3EGbci-6" target="_pkrtM7WGQT2VM3EGbci-9">
          <mxGeometry relative="1" as="geometry" />
        </mxCell>
        <mxCell id="_pkrtM7WGQT2VM3EGbci-13" value="true" style="edgeLabel;html=1;align=center;verticalAlign=middle;resizable=0;points=[];" vertex="1" connectable="0" parent="_pkrtM7WGQT2VM3EGbci-10">
          <mxGeometry x="-0.3404" y="-3" relative="1" as="geometry">
            <mxPoint as="offset" />
          </mxGeometry>
        </mxCell>
        <mxCell id="_pkrtM7WGQT2VM3EGbci-16" style="edgeStyle=orthogonalEdgeStyle;rounded=0;orthogonalLoop=1;jettySize=auto;html=1;entryX=1;entryY=0.5;entryDx=0;entryDy=0;" edge="1" parent="1" source="_pkrtM7WGQT2VM3EGbci-6" target="_pkrtM7WGQT2VM3EGbci-15">
          <mxGeometry relative="1" as="geometry" />
        </mxCell>
        <mxCell id="_pkrtM7WGQT2VM3EGbci-17" value="false" style="edgeLabel;html=1;align=center;verticalAlign=middle;resizable=0;points=[];" vertex="1" connectable="0" parent="_pkrtM7WGQT2VM3EGbci-16">
          <mxGeometry x="-0.2529" y="3" relative="1" as="geometry">
            <mxPoint as="offset" />
          </mxGeometry>
        </mxCell>
        <mxCell id="_pkrtM7WGQT2VM3EGbci-6" value="i&amp;lt;10" style="rhombus;whiteSpace=wrap;html=1;" vertex="1" parent="1">
          <mxGeometry x="314" y="410" width="100" height="100" as="geometry" />
        </mxCell>
        <mxCell id="_pkrtM7WGQT2VM3EGbci-9" value="printf number*i" style="shape=parallelogram;perimeter=parallelogramPerimeter;whiteSpace=wrap;html=1;fixedSize=1;" vertex="1" parent="1">
          <mxGeometry x="280" y="580" width="120" height="60" as="geometry" />
        </mxCell>
        <mxCell id="_pkrtM7WGQT2VM3EGbci-12" value="" style="curved=1;endArrow=classic;html=1;rounded=0;exitX=0.95;exitY=0.383;exitDx=0;exitDy=0;exitPerimeter=0;" edge="1" parent="1" source="_pkrtM7WGQT2VM3EGbci-9">
          <mxGeometry width="50" height="50" relative="1" as="geometry">
            <mxPoint x="530" y="470" as="sourcePoint" />
            <mxPoint x="370" y="380" as="targetPoint" />
            <Array as="points">
              <mxPoint x="580" y="470" />
              <mxPoint x="510" y="500" />
              <mxPoint x="530" y="420" />
            </Array>
          </mxGeometry>
        </mxCell>
        <mxCell id="_pkrtM7WGQT2VM3EGbci-15" value="end" style="ellipse;whiteSpace=wrap;html=1;" vertex="1" parent="1">
          <mxGeometry x="40" y="400" width="120" height="80" as="geometry" />
        </mxCell>
      </root>
    </mxGraphModel>
  </diagram>
</mxfile>
